<?xml version="1.0" encoding="utf-8"?>
<!-- Generator: Adobe Illustrator 16.0.0, SVG Export Plug-In . SVG Version: 6.00 Build 0)  -->
<!DOCTYPE svg PUBLIC "-//W3C//DTD SVG 1.0//EN" "http://www.w3.org/TR/2001/REC-SVG-20010904/DTD/svg10.dtd">
<svg version="1.0" id="Layer_1" xmlns="http://www.w3.org/2000/svg" xmlns:xlink="http://www.w3.org/1999/xlink" x="0px" y="0px"
	 width="60px" height="60px" viewBox="0 0 60 60" enable-background="new 0 0 60 60" xml:space="preserve">
<path fill="#FFFFFF" d="M0,30C0,13.458,13.458,0,30,0s30,13.458,30,30S46.542,60,30,60S0,46.542,0,30 M4.264,30
	c0,14.189,11.545,25.734,25.736,25.734c14.191,0,25.736-11.545,25.736-25.734C55.736,15.81,44.191,4.264,30,4.264
	C15.809,4.264,4.264,15.81,4.264,30"/>
<polygon fill="#FFFFFF" points="19.89,17.16 29.799,27.068 39.707,17.16 42.734,20.188 32.826,30.097 42.734,40.006 39.707,43.032 
	29.799,33.124 19.89,43.032 16.863,40.006 26.771,30.097 16.863,20.188 "/>
</svg>
