<?xml version="1.0" encoding="utf-8"?>
<!-- Generator: Adobe Illustrator 16.0.0, SVG Export Plug-In . SVG Version: 6.00 Build 0)  -->
<!DOCTYPE svg PUBLIC "-//W3C//DTD SVG 1.0//EN" "http://www.w3.org/TR/2001/REC-SVG-20010904/DTD/svg10.dtd">
<svg version="1.0" id="Layer_1" xmlns="http://www.w3.org/2000/svg" xmlns:xlink="http://www.w3.org/1999/xlink" x="0px" y="0px"
	 width="60px" height="60px" viewBox="0 0 60 60" enable-background="new 0 0 60 60" xml:space="preserve">
<polygon fill="#FFFFFF" points="38.539,31.692 38.523,21.12 27.95,21.104 27.956,16.604 43.019,16.625 43.039,31.687 "/>
<polygon fill="#FFFFFF" points="32.044,42.682 16.982,42.66 16.961,27.599 21.461,27.593 21.476,38.167 32.05,38.182 "/>
<path fill="#FFFFFF" d="M30,4.5c14.061,0,25.5,11.439,25.5,25.5c0,14.061-11.439,25.5-25.5,25.5C15.939,55.5,4.5,44.061,4.5,30
	C4.5,15.939,15.939,4.5,30,4.5 M30,0C13.432,0,0,13.432,0,30c0,16.568,13.432,30,30,30c16.568,0,30-13.432,30-30
	C60,13.432,46.568,0,30,0"/>
</svg>
