<?xml version="1.0" encoding="utf-8"?>
<!-- Generator: Adobe Illustrator 24.0.1, SVG Export Plug-In . SVG Version: 6.00 Build 0)  -->
<svg version="1.1" id="Layer_3" xmlns="http://www.w3.org/2000/svg" xmlns:xlink="http://www.w3.org/1999/xlink" x="0px" y="0px"
	 width="1000px" height="1000px" viewBox="0 0 1000 1000" style="enable-background:new 0 0 1000 1000;" xml:space="preserve">
<style type="text/css">
	.st0{fill-rule:evenodd;clip-rule:evenodd;fill:#FFFFFF;}
</style>
<path class="st0" d="M332.7,100h-82.2c-19.6,0-39.1,3.9-57.2,11.4c-18.3,7.6-34.9,18.6-48.9,32.6l0,0c-14,14-25,30.5-32.6,48.8
	c-7.7,18.2-11.7,37.7-11.8,57.5v101.4h66.7V250.2c0.1-11,2.3-21.8,6.5-31.9c4.2-10.2,10.3-19.4,18.1-27.1l0,0
	c15.7-15.6,37-24.4,59.2-24.4h82.2V100z M749.3,100h-53.7v66.6h53.7c11,0.1,21.8,2.3,32,6.5c10.1,4.2,19.4,10.3,27.2,18l2.3,2.3l0,0
	c6.7,7.3,12.1,15.7,16,24.9c4.3,10.1,6.5,20.9,6.5,31.8v101.4H900V250.2c0-38.7-15-75.9-41.9-103.7l0,0l-2.4-2.4
	c-14-13.9-30.6-25-48.9-32.6C788.6,103.9,769.1,100,749.3,100z M899.8,749.8V637.2h-66.7v112.6c0,10.9-2.3,21.8-6.5,31.8
	c-4.3,10.1-10.5,19.4-18.3,27.1c-15.6,15.7-36.9,24.6-59.1,24.6h-53.6V900h53.7c39.9,0,78.1-15.9,106.3-44.1
	c13.9-14,25-30.5,32.6-48.8c7.5-18.2,11.4-37.6,11.4-57.3L899.8,749.8z M250.5,900h82.2v-66.6h-82.2c-22.2,0-43.5-8.9-59.2-24.6
	l-1.7-1.6c-7.3-7.7-13.1-16.7-17-26.6c-3.9-9.8-6-20.3-5.9-30.9V637.2H100v112.6c0,19.1,3.7,38.1,10.9,55.8
	c7.2,17.9,17.8,34.2,31.2,48l2,2.3c14,13.9,30.6,25,48.9,32.6c18.2,7.5,37.7,11.4,57.4,11.4V900z"/>
</svg>
